<svg id="Camada_1" data-name="Camada 1" xmlns="http://www.w3.org/2000/svg" viewBox="0 0 2011.07 880"><defs><style>.cls-1,.cls-2{fill:#383838;}.cls-2{font-size:678.83px;font-family:Magiesta;}</style></defs><path class="cls-1" d="M675.11,803.74a38,38,0,0,1-14.72,14.48q-9.87,5.7-25.11,5.7-21.13,0-34.23-11.79T588,781.3q0-20.53,13.37-33.19t34.36-12.65q13.51,0,23.45,5.37a33.84,33.84,0,0,1,14.72,15l-10,3.7a29.13,29.13,0,0,0-11.36-11,35.16,35.16,0,0,0-16.84-3.79q-15.53,0-25.53,9.91t-10,26q0,15.22,9.73,24.56t25.67,9.34q11,0,18.08-4.11a31,31,0,0,0,11.3-11Z"/><path class="cls-1" d="M698.11,749.78h-8.8l15.45-19.58h11.5Zm-5.68,72.7V761.36h11.36v61.12Z"/><path class="cls-1" d="M725.41,822.48V732h11.36v90.49Z"/><path class="cls-1" d="M764.41,747.57a8.4,8.4,0,0,1-6-2.12,6.58,6.58,0,0,1,0-10,9.44,9.44,0,0,1,11.92,0,6.56,6.56,0,0,1,0,10A8.38,8.38,0,0,1,764.41,747.57ZM770,822.48H758.59V761.36H770Z"/><path class="cls-1" d="M821.78,823.92q-16.56,0-25.91-8.51t-9.36-22.77q0-14.75,10.4-23.73t26-9q15.93,0,25.25,8.74t9.32,23a30.57,30.57,0,0,1-9.6,23Q838.26,823.92,821.78,823.92Zm.62-8.48q10.74,0,17.08-6.18T845.82,792q0-10.5-6.34-17t-17.08-6.54q-10.74,0-17.49,6.6t-6.76,17.22q0,11.16,6.76,17.16T822.4,815.44Z"/><path class="cls-1" d="M869.93,810.49l9.69-3.64a14.39,14.39,0,0,0,6.55,6.56,23.56,23.56,0,0,0,10.29,2,17.34,17.34,0,0,0,9.66-2.51,8.1,8.1,0,0,0,3.85-7.22,7.63,7.63,0,0,0-3.36-6.18q-3.36-2.6-10.57-4-13.44-2.56-18.25-7A14,14,0,0,1,873,778a15.15,15.15,0,0,1,7-13.31,29,29,0,0,1,16.66-4.71,34.66,34.66,0,0,1,14.17,2.8,19.16,19.16,0,0,1,9.45,8.66l-9.28,3.7a12.81,12.81,0,0,0-5.54-5,21.27,21.27,0,0,0-9.08-1.65,17,17,0,0,0-9.07,2.27,7,7,0,0,0-3.68,6.27,6.52,6.52,0,0,0,3,5.76q3,2,11.85,3.73,11.57,2.21,17,6.78a14.82,14.82,0,0,1,5.41,11.9A15.87,15.87,0,0,1,913.61,819a29.58,29.58,0,0,1-17.15,4.93q-10.32,0-16.87-3.67A23.28,23.28,0,0,1,869.93,810.49Z"/><path class="cls-1" d="M1029.48,793.65h-51.2q0,11.34,6.27,16.57a22.58,22.58,0,0,0,14.93,5.22,24.4,24.4,0,0,0,11.47-2.59,21.51,21.51,0,0,0,8.2-7.74l9.29,4.06a27.93,27.93,0,0,1-11.26,10.66q-7.51,4.08-18.46,4.09-14.15,0-23.18-8.06t-9-23.7q0-13.9,9.15-23.07t23.41-9.16q14.49,0,22.45,7.55t8,21Zm-11.64-8.17q0-8-5.06-12.51t-13.92-4.57q-8.6,0-14,4.9a19.58,19.58,0,0,0-6.48,12.18Z"/><path class="cls-1" d="M1080.05,822.48V736.89h28.54q13.65,0,21.07,5.4t7.41,15.37a18.13,18.13,0,0,1-4.19,11.85,22.81,22.81,0,0,1-10.64,7.25V777q8.94,1.79,14,7.43a19.56,19.56,0,0,1,5,13.46,21.33,21.33,0,0,1-8.94,17.79q-8.94,6.81-23.28,6.8ZM1091.69,746V773.6h12.47q9.49,0,15.1-3.73t5.62-11q0-6.37-4.54-9.64T1107.49,746Zm0,36.65v30.8h16.07q10.53,0,15.9-4.18a13.71,13.71,0,0,0,5.37-11.46q0-7.57-6-11.37t-18-3.79Z"/><path class="cls-1" d="M1216.6,793.65h-51.2q0,11.34,6.27,16.57a22.6,22.6,0,0,0,14.93,5.22,24.34,24.34,0,0,0,11.47-2.59,21.53,21.53,0,0,0,8.21-7.74l9.28,4.06a27.84,27.84,0,0,1-11.25,10.66q-7.53,4.08-18.47,4.09-14.13,0-23.17-8.06t-9-23.7q0-13.9,9.14-23.07t23.42-9.16q14.47,0,22.44,7.55t8,21ZM1205,785.48q0-8-5-12.51T1186,768.4q-8.6,0-14,4.9a19.68,19.68,0,0,0-6.48,12.18Z"/><path class="cls-1" d="M1289.76,822.48H1278.4v-8.71h-.28a24.26,24.26,0,0,1-9.32,7.43,29.17,29.17,0,0,1-12.57,2.72q-12.54,0-19-6.27t-6.41-18.92V761.36h11.3v36.29q0,9.44,3.88,13.61t12.54,4.18q8.79,0,14.3-5.46a18.51,18.51,0,0,0,5.51-13.7V761.36h11.36Z"/><path class="cls-1" d="M1348.16,818.6a20,20,0,0,1-6.85,3.94,27.66,27.66,0,0,1-8.8,1.26q-8.38,0-13-4T1315,808.22v-38.5h-12.19v-8.36H1315V746.92l11.36-1.74v16.18h19v8.36h-19v37.66q0,4.36,1.94,6.33c1.29,1.31,3.33,2,6.1,2a11.18,11.18,0,0,0,4-.72,11.78,11.78,0,0,0,4-2.74Z"/><path class="cls-1" d="M1421.19,761.36l-34.85,75.87a24,24,0,0,1-8.8,10.59,23.61,23.61,0,0,1-12.82,3.44,34.39,34.39,0,0,1-6.58-.57,28.28,28.28,0,0,1-5.89-1.88l4.44-7.82a22.84,22.84,0,0,0,4,1.34,18.45,18.45,0,0,0,4.12.45,11.42,11.42,0,0,0,6-1.52c1.69-1,3.29-3.08,4.82-6.18l6.23-12.72-27.71-61h12.61l18.64,44.11c.46,1.12.8,2,1,2.72s.53,1.66.9,2.89h.41a18.22,18.22,0,0,1,.87-2.92c.3-.72.68-1.57,1.14-2.57l19.61-44.23Z"/><text class="cls-2" transform="translate(551.91 656.68)">anielle</text><path class="cls-1" d="M443.38,597.35c14.1-2.71,46.07-25.33,78.45-53.34-3.29,4.44-6.32,9.09-9.86,13.31-22.71,27-50.59,52.63-80.87,70.08-23.89,13.78-60.48,23-100.48,29.28-51.39,8.07-108.87,5.65-151.84,7.37h-.26c-3.22.13-6.35.22-9.41.35l-18.18.64c-2,.06-4,0-5.9-.13a.92.92,0,0,1-.37-.11,2.35,2.35,0,0,1-1-2.92c.3-.79.62-1.56,1-2.29,5-11.23,56.69-17.37,69.16-20.46,21-5.27,81.86-11.92,103.08-16.07,58.38-11.42,94.74-28,126.21-67.34,34.43-43,59.69-87.09,72-139.72,6.12-26.29,9.66-52.79,8.71-79.81a14.49,14.49,0,0,1,.86-6.32c12.41,85-3,162.88-59.46,230.38,39.07-30.69,68.17-68.84,86.8-114.87C534.43,509,495.06,557.16,443.38,597.35Z"/><path class="cls-1" d="M330.62,649.31c-.16.58-.32,1.15-.45,1.73-51.39,8.07-108.42,11.29-151.39,13h-.26c-2.23-.06-4.21-.09-5.84-.09l-3.57.44-18.18.64c-2,.06-4,0-5.9-.13-.48,0-.93-.54-2-1.27a34.8,34.8,0,0,1,1.59-4l28.1-7.82c27.82,0,133.31,6.41,156.82-3.48Z"/><path class="cls-1" d="M479.78,199.85q-24.16.38-48.29,2.42-26.24-53.29-68.4-82.81-48-33.54-110.56-33.56H131.72V669l-51.61,6.31V73.72H252.53a280.85,280.85,0,0,1,100.9,18.47A248,248,0,0,1,479.78,199.85Z"/><path class="cls-1" d="M177.61,522.29S308.37,388.35,415,438.39c0,0-32.7-32.13-117.65-2.68S177.61,522.29,177.61,522.29Z"/></svg>